<svg display="block" role="presentation" viewBox="0 0 24 24" xmlns="http://www.w3.org/2000/svg"><path d="M 1.5 3 C 2.328 3 3 2.328 3 1.5 C 3 0.672 2.328 0 1.5 0 C 0.672 0 0 0.672 0 1.5 C 0 2.328 0.672 3 1.5 3 Z" fill="transparent" height="3px" id="GN1AmpGQ3" stroke-dasharray="" stroke-linecap="round" stroke-linejoin="round" stroke-width="2" stroke="var(--token-5f3729c4-183c-47b5-94e6-78322fe2ee11, rgb(250, 250, 250))" transform="translate(5.5 6.5)" width="3px"/><path d="M 11 0 L 2 0 C 0.895 0 0 0.895 0 2 L 0 17 C 0 18.105 0.895 19 2 19 L 17 19 C 18.105 19 19 18.105 19 17 L 19 8" fill="transparent" height="19px" id="BBK5wuQCp" stroke-dasharray="" stroke-linecap="round" stroke-linejoin="round" stroke-width="2" stroke="var(--token-5f3729c4-183c-47b5-94e6-78322fe2ee11, rgb(250, 250, 250))" transform="translate(2 3)" width="19px"/><path d="M 3.5 0 L 3.758 0.697 C 4.096 1.611 4.265 2.068 4.599 2.401 C 4.932 2.735 5.389 2.904 6.303 3.242 L 7 3.5 L 6.303 3.758 C 5.389 4.096 4.932 4.265 4.599 4.599 C 4.265 4.932 4.096 5.389 3.758 6.303 L 3.5 7 L 3.242 6.303 C 2.904 5.389 2.735 4.932 2.401 4.599 C 2.068 4.265 1.611 4.096 0.697 3.758 L 0 3.5 L 0.697 3.242 C 1.611 2.904 2.068 2.735 2.401 2.401 C 2.735 2.068 2.904 1.611 3.242 0.697 Z" fill="transparent" height="7px" id="sVxa5rtHZ" stroke-dasharray="" stroke-linecap="round" stroke-linejoin="round" stroke-width="2" stroke="var(--token-5f3729c4-183c-47b5-94e6-78322fe2ee11, rgb(250, 250, 250))" transform="translate(15 2)" width="7px"/><path d="M 16 3.271 L 11.364 0.321 C 10.571 -0.184 9.515 -0.084 8.841 0.559 L 0 9" fill="transparent" height="9.000016344225738px" id="dIkrU8zhb" stroke-dasharray="" stroke-linecap="round" stroke-linejoin="round" stroke-width="2" stroke="var(--token-5f3729c4-183c-47b5-94e6-78322fe2ee11, rgb(250, 250, 250))" transform="translate(5 13)" width="16px"/></svg>