<svg display="block" role="presentation" viewBox="0 0 24 24" xmlns="http://www.w3.org/2000/svg"><path d="M 9 19 L 2 19 C 0.895 19 0 18.105 0 17 L 0 2 C 0 0.895 0.895 0 2 0 L 16 0 C 17.105 0 18 0.895 18 2 L 18 8.5" fill="transparent" height="19px" id="id0AZdb10" stroke-dasharray="" stroke-linecap="round" stroke-linejoin="miter" stroke-miterlimit="10" stroke-width="2" stroke="var(--token-5f3729c4-183c-47b5-94e6-78322fe2ee11, rgb(250, 250, 250))" transform="translate(2 2)" width="18px"/><path d="M 3.407 0.404 C 3.619 -0.135 4.381 -0.135 4.593 0.404 L 4.63 0.497 C 5.148 1.811 6.189 2.852 7.503 3.37 L 7.596 3.407 C 8.134 3.619 8.134 4.381 7.596 4.593 L 7.503 4.63 C 6.189 5.148 5.148 6.189 4.63 7.503 L 4.593 7.596 C 4.381 8.134 3.619 8.134 3.407 7.596 L 3.37 7.503 C 2.852 6.189 1.811 5.148 0.497 4.63 L 0.404 4.593 C -0.135 4.381 -0.135 3.619 0.404 3.407 L 0.497 3.37 C 1.811 2.852 2.852 1.811 3.37 0.497 Z" fill="transparent" height="7.999949999999995px" id="Obd_87HKG" stroke-dasharray="" stroke-linecap="butt" stroke-linejoin="miter" stroke-miterlimit="10" stroke-width="2" stroke="var(--token-5f3729c4-183c-47b5-94e6-78322fe2ee11, rgb(250, 250, 250))" transform="translate(14 14)" width="7.999949999999995px"/><path d="M 0 0 L 8 0 M 0 4.5 L 8 4.5 M 0 9 L 4 9" fill="transparent" height="9px" id="CPq8dYLTn" stroke-dasharray="" stroke-linecap="round" stroke-linejoin="round" stroke-width="2" stroke="var(--token-5f3729c4-183c-47b5-94e6-78322fe2ee11, rgb(250, 250, 250))" transform="translate(7 7)" width="8px"/></svg>