<svg display="block" role="presentation" viewBox="0 0 24 24" xmlns="http://www.w3.org/2000/svg"><path d="M 2.974 0.022 C 2.98 -0.007 3.021 -0.007 3.026 0.022 C 3.33 1.508 4.492 2.67 5.979 2.974 C 6.007 2.98 6.007 3.021 5.979 3.026 C 4.492 3.33 3.33 4.492 3.026 5.979 C 3.021 6.007 2.98 6.007 2.974 5.979 C 2.67 4.492 1.508 3.33 0.022 3.026 C -0.007 3.021 -0.007 2.98 0.022 2.974 C 1.508 2.67 2.67 1.508 2.974 0.022 Z" fill="transparent" height="6.000050000000002px" id="e1dqqh2hF" stroke-dasharray="" stroke-linecap="butt" stroke-linejoin="miter" stroke-miterlimit="10" stroke-width="2" stroke="var(--token-5f3729c4-183c-47b5-94e6-78322fe2ee11, rgb(250, 250, 250))" transform="translate(16 15)" width="6.000050000000002px"/><path d="M 20 11 L 20 2 C 20 0.895 19.105 0 18 0 L 2 0 C 0.895 0 0 0.895 0 2 L 0 14 C 0 15.105 0.895 16 2 16 L 11 16" fill="transparent" height="16px" id="rc87lTWr8" stroke-dasharray="" stroke-linecap="round" stroke-linejoin="round" stroke-width="2" stroke="var(--token-5f3729c4-183c-47b5-94e6-78322fe2ee11, rgb(250, 250, 250))" transform="translate(2 3)" width="20px"/><path d="M 0 0.787 L 0 7.213 C 0 7.648 0.352 8 0.787 8 C 0.927 8 1.063 7.963 1.184 7.893 L 6.568 4.752 C 6.835 4.596 7 4.31 7 4 C 7 3.69 6.835 3.404 6.568 3.248 L 1.184 0.107 C 1.063 0.037 0.927 0 0.787 0 C 0.352 0 0 0.352 0 0.787 Z" fill="transparent" height="8px" id="eEQIt1zWQ" stroke-dasharray="" stroke-linecap="butt" stroke-linejoin="round" stroke-width="2" stroke="var(--token-5f3729c4-183c-47b5-94e6-78322fe2ee11, rgb(250, 250, 250))" transform="translate(9 7)" width="7px"/></svg>