<svg display="block" role="presentation" viewBox="0 0 24 24" xmlns="http://www.w3.org/2000/svg"><path d="M 1 4 L 0 4 M 5 4 L 4 4 M 1 0 L 0 0 M 5 0 L 4 0 M 0 8 L 1 8 M 4 8 L 5 8" fill="transparent" height="8px" id="UVWAgkIcA" stroke-dasharray="" stroke-linecap="round" stroke-linejoin="round" stroke-width="2" stroke="var(--token-5f3729c4-183c-47b5-94e6-78322fe2ee11, rgb(250, 250, 250))" transform="translate(5.5 7.5)" width="5px"/><path d="M 1 4 L 0 4 M 1 0 L 0 0" fill="transparent" height="4px" id="pfEBT92oU" stroke-dasharray="" stroke-linecap="round" stroke-linejoin="round" stroke-width="2" stroke="var(--token-5f3729c4-183c-47b5-94e6-78322fe2ee11, rgb(250, 250, 250))" transform="translate(17 11.5)" width="1px"/><path d="M 11 6 L 11 2 C 11 0.895 10.105 0 9 0 L 2 0 C 0.895 0 0 0.895 0 2 L 0 19 L 11 19 M 11 6 L 17 6 C 18.105 6 19 6.895 19 8 L 19 19 L 11 19 M 11 6 L 11 19" fill="transparent" height="19px" id="YXEgATzV_" stroke-dasharray="" stroke-linecap="butt" stroke-linejoin="round" stroke-width="2" stroke="var(--token-5f3729c4-183c-47b5-94e6-78322fe2ee11, rgb(250, 250, 250))" transform="translate(2.5 2.5)" width="19px"/></svg>