<svg display="block" role="presentation" viewBox="0 0 24 24" xmlns="http://www.w3.org/2000/svg"><path d="M 7 2 L 7 0 M 14 20 C 14 16.134 10.866 13 7 13 C 3.134 13 0 16.134 0 20 M 4.5 5.5 L 4.51 5.5 M 9.49 5.5 L 9.5 5.5 M 0.5 4 C 0.5 2.895 1.395 2 2.5 2 L 11.5 2 C 12.605 2 13.5 2.895 13.5 4 L 13.5 6 C 13.5 8.209 11.709 10 9.5 10 L 4.5 10 C 2.291 10 0.5 8.209 0.5 6 Z" fill="transparent" height="20px" id="OPab5EYyD" stroke-dasharray="" stroke-linecap="round" stroke-linejoin="round" stroke-width="2" stroke="var(--token-5f3729c4-183c-47b5-94e6-78322fe2ee11, rgb(250, 250, 250))" transform="translate(5 2)" width="14px"/></svg>