<svg display="block" role="presentation" viewBox="0 0 24 24" xmlns="http://www.w3.org/2000/svg"><path d="M 13 9 C 13 11.761 10.761 14 8 14 C 5.239 14 3 11.761 3 9 L 3 5 C 3 2.239 5.239 0 8 0 M 16 9 C 16 13.418 12.418 17 8 17 M 8 17 C 3.582 17 0 13.418 0 9 M 8 17 L 8 20 M 10.333 2.646 C 11.539 2.496 12.496 1.539 12.646 0.333 C 12.669 0.15 12.816 0 13 0 C 13.184 0 13.331 0.15 13.354 0.333 C 13.504 1.539 14.461 2.496 15.667 2.646 C 15.85 2.669 16 2.816 16 3 C 16 3.184 15.85 3.331 15.667 3.354 C 14.461 3.504 13.504 4.461 13.354 5.667 C 13.331 5.85 13.184 6 13 6 C 12.816 6 12.669 5.85 12.646 5.667 C 12.496 4.461 11.539 3.504 10.333 3.354 C 10.15 3.331 10 3.184 10 3 C 10 2.816 10.15 2.669 10.333 2.646 Z" fill="transparent" height="20px" id="SU5lo6gBN" stroke-dasharray="" stroke-linecap="round" stroke-linejoin="round" stroke-width="2" stroke="var(--token-5f3729c4-183c-47b5-94e6-78322fe2ee11, rgb(250, 250, 250))" transform="translate(4 2)" width="16px"/></svg>