<svg display="block" role="presentation" viewBox="0 0 24 24" xmlns="http://www.w3.org/2000/svg"><path d="M 18 9.051 L 18 4.123 C 18 3.348 17.415 2.705 16.655 2.573 C 13.595 2.041 11.055 0.858 9.815 0.202 C 9.308 -0.067 8.692 -0.067 8.185 0.202 C 6.945 0.858 4.405 2.041 1.345 2.573 C 0.586 2.705 0 3.348 0 4.123 L 0 9.051 C 0 15.48 6.538 18.986 8.469 19.881 C 8.81 20.04 9.19 20.04 9.531 19.881 C 11.462 18.986 18 15.48 18 9.051 Z" fill="transparent" height="20px" id="PYGIcbJ8f" stroke-dasharray="" stroke-linecap="round" stroke-linejoin="miter" stroke-miterlimit="10" stroke-width="2" stroke="var(--token-5f3729c4-183c-47b5-94e6-78322fe2ee11, rgb(250, 250, 250))" transform="translate(3 2)" width="18px"/><path d="M 9.5 0.75 C 9.5 0.336 9.164 0 8.75 0 C 8.336 0 8 0.336 8 0.75 Z M 8 6.75 C 8 7.164 8.336 7.5 8.75 7.5 C 9.164 7.5 9.5 7.164 9.5 6.75 Z M 2.972 0.75 L 2.972 0 C 2.659 0 2.378 0.195 2.269 0.49 Z M 3.528 0.75 L 4.231 0.49 C 4.122 0.195 3.842 0 3.528 0 Z M 0.047 6.49 C -0.097 6.878 0.101 7.309 0.49 7.453 C 0.878 7.597 1.31 7.399 1.454 7.011 Z M 5.047 7.011 C 5.191 7.399 5.622 7.597 6.011 7.453 C 6.399 7.309 6.597 6.878 6.454 6.49 Z M 8 0.75 L 8 6.75 L 9.5 6.75 L 9.5 0.75 Z M 2.972 1.5 L 3.528 1.5 L 3.528 0 L 2.972 0 Z M 1.454 7.01 L 2.342 4.61 L 0.936 4.089 L 0.047 6.489 Z M 2.342 4.61 L 3.676 1.01 L 2.269 0.49 L 0.936 4.089 Z M 2.825 1.01 L 4.158 4.61 L 5.565 4.089 L 4.231 0.49 Z M 4.158 4.61 L 5.047 7.01 L 6.454 6.489 L 5.565 4.089 Z M 1.639 5.1 L 4.861 5.1 L 4.861 3.6 L 1.639 3.6 Z" fill="var(--token-5f3729c4-183c-47b5-94e6-78322fe2ee11, rgb(250, 250, 250))" height="7.500207335590006px" id="NRKoTT97N" transform="translate(7.25 7.25)" width="9.500210762023926px"/></svg>