<svg xmlns="http://www.w3.org/2000/svg" viewBox="0 0 44 34" id="svg11932701312">
    <path d="M 18.857 34 L 1.676 34 C 0.75 34 0 33.252 0 32.33 L 0 1.674 C 0 0.134 1.912 -0.586 2.934 0.569 L 20.115 19.992 C 20.384 20.297 20.533 20.69 20.533 21.097 L 20.533 32.33 C 20.533 33.252 19.783 34 18.857 34 Z"
          fill="var(--token-4908fc71-4714-40f9-b287-095ccb2ca051, rgba(255, 255, 255, 0.6)) /* {&quot;name&quot;:&quot;White 60%&quot;} */"></path>
    <path d="M 25.143 34 L 42.324 34 C 43.249 34 44 33.252 44 32.33 L 44 1.674 C 44 0.134 42.088 -0.586 41.066 0.569 L 23.885 19.992 C 23.616 20.297 23.467 20.69 23.467 21.097 L 23.467 32.33 C 23.467 33.252 24.217 34 25.143 34 Z"
          fill="var(--token-4908fc71-4714-40f9-b287-095ccb2ca051, rgba(255, 255, 255, 0.6)) /* {&quot;name&quot;:&quot;White 60%&quot;} */"></path>
</svg>