<svg xmlns="http://www.w3.org/2000/svg" viewBox="0 0 33 40" id="svg9889659101"><path d="M 21.542 39.816 L 0 18.275 L 0 21.931 L 18.07 40 L 18.128 40 C 19.318 40 20.456 39.939 21.542 39.816 Z M 0 29.243 L 10.758 40 L 14.414 40 L 0 25.587 Z M 0 38.384 C 0 39.277 0.723 40 1.616 40 L 7.102 40 L 0 32.899 Z M 0 1.616 L 0 14.619 L 24.638 39.256 C 26.043 38.87 27.284 38.267 28.359 37.449 C 29.499 36.599 30.449 35.55 31.209 34.301 C 32.403 32.42 33 30.294 33 27.924 C 33 25.626 32.475 23.672 31.426 22.062 C 30.395 20.452 28.857 19.276 26.813 18.535 C 28.151 17.847 29.165 17.087 29.852 16.255 C 31.082 14.772 31.697 12.809 31.697 10.366 C 31.697 7.996 31.082 5.961 29.852 4.261 C 27.808 1.493 24.334 0.072 19.431 0 L 1.616 0 C 0.723 0 0 0.723 0 1.616 Z" fill="var(--token-4908fc71-4714-40f9-b287-095ccb2ca051, rgba(255, 255, 255, 0.6)) /* {&quot;name&quot;:&quot;White 60%&quot;} */"></path></svg>