<svg xmlns="http://www.w3.org/2000/svg" viewBox="0 0 44 44" id="svg10337773762">
    <path d="M 7.744 11.602 C 8.348 12.385 8.815 13.395 9.196 14.427 C 9.964 16.504 10.578 19.218 11.144 21.77 L 11.24 22.202 C 11.786 24.668 12.295 26.964 12.875 28.685 C 13.1 29.351 13.313 29.859 13.505 30.222 C 13.703 29.857 13.921 29.346 14.152 28.675 C 14.757 26.916 15.29 24.554 15.861 22.027 L 15.92 21.763 C 16.496 19.212 17.115 16.504 17.872 14.433 C 18.248 13.405 18.704 12.4 19.289 11.62 C 19.861 10.859 20.803 10 22.167 10 C 23.539 10 24.477 10.869 25.04 11.639 C 25.614 12.423 26.053 13.432 26.411 14.46 C 27.123 16.506 27.695 19.179 28.233 21.698 L 28.251 21.784 C 28.812 24.406 29.34 26.863 29.969 28.668 C 30.247 29.468 30.51 30.033 30.741 30.393 C 30.963 30.035 31.214 29.478 31.478 28.689 C 32.065 26.934 32.551 24.569 33.074 22.027 L 33.121 21.798 C 33.645 19.25 34.211 16.53 34.953 14.448 C 35.321 13.412 35.781 12.392 36.393 11.601 C 36.51 11.45 36.639 11.298 36.781 11.152 C 33.444 6.613 28.066 3.667 22 3.667 C 15.969 3.667 10.619 6.578 7.278 11.073 C 7.452 11.245 7.608 11.425 7.744 11.602 Z M 3.667 22 C 3.667 32.125 11.875 40.334 22 40.334 C 32.126 40.334 40.334 32.125 40.334 22 C 40.334 19.396 39.791 16.919 38.812 14.676 C 38.682 14.955 38.546 15.288 38.407 15.678 C 37.768 17.47 37.251 19.917 36.712 22.536 L 36.64 22.89 C 36.14 25.323 35.615 27.882 34.955 29.853 C 34.611 30.88 34.186 31.893 33.621 32.681 C 33.064 33.457 32.129 34.334 30.75 34.334 C 29.378 34.334 28.44 33.465 27.877 32.695 C 27.303 31.911 26.864 30.902 26.506 29.874 C 25.794 27.828 25.222 25.155 24.684 22.636 L 24.666 22.55 C 24.105 19.928 23.577 17.471 22.949 15.666 C 22.662 14.844 22.393 14.271 22.157 13.913 C 21.908 14.274 21.621 14.856 21.316 15.692 C 20.656 17.497 20.088 19.955 19.497 22.571 L 19.413 22.942 C 18.865 25.373 18.292 27.912 17.619 29.867 C 17.268 30.888 16.846 31.885 16.307 32.66 C 15.798 33.39 14.89 34.334 13.5 34.334 C 12.106 34.334 11.2 33.386 10.695 32.652 C 10.16 31.876 9.745 30.877 9.401 29.857 C 8.754 27.94 8.205 25.459 7.677 23.073 L 7.564 22.564 C 6.985 19.95 6.422 17.496 5.757 15.698 C 5.583 15.227 5.415 14.838 5.255 14.524 C 4.234 16.807 3.667 19.337 3.667 22 Z M 44 22 C 44 34.151 34.151 44 22 44 C 9.85 44 0 34.151 0 22 C 0 9.85 9.85 0 22 0 C 34.151 0 44 9.85 44 22 Z M 22.406 13.614 C 22.415 13.609 22.419 13.606 22.419 13.606 C 22.419 13.605 22.415 13.608 22.406 13.614 Z M 21.9 13.599 C 21.9 13.599 21.904 13.603 21.912 13.608 C 21.904 13.601 21.9 13.598 21.9 13.599 Z M 30.483 30.732 C 30.475 30.737 30.471 30.741 30.471 30.741 C 30.471 30.741 30.475 30.738 30.483 30.732 Z M 31.017 30.735 C 31.017 30.734 31.013 30.731 31.004 30.726 C 31.013 30.733 31.017 30.735 31.017 30.735 Z M 13.14 30.76 C 13.13 30.768 13.124 30.773 13.124 30.773 C 13.124 30.774 13.13 30.77 13.14 30.76 Z M 13.883 30.777 C 13.883 30.776 13.877 30.771 13.867 30.764 C 13.877 30.774 13.883 30.778 13.883 30.777 Z"
          fill="var(--token-4908fc71-4714-40f9-b287-095ccb2ca051, rgba(255, 255, 255, 0.6)) /* {&quot;name&quot;:&quot;White 60%&quot;} */"></path>
</svg>