<svg xmlns="http://www.w3.org/2000/svg" viewBox="0 0 109 22">
    <path d="M 27.102 17.032 C 26.574 17.032 26.03 16.979 25.471 16.872 C 24.912 16.772 24.394 16.65 23.915 16.506 C 23.437 16.356 23.058 16.212 22.779 16.075 L 23.058 13.522 C 23.493 13.734 23.946 13.931 24.419 14.113 C 24.89 14.294 25.375 14.441 25.872 14.554 C 26.369 14.667 26.872 14.723 27.382 14.723 C 28.015 14.723 28.525 14.598 28.91 14.348 C 29.295 14.097 29.487 13.716 29.487 13.203 C 29.487 12.808 29.379 12.492 29.161 12.255 C 28.944 12.011 28.612 11.795 28.164 11.607 C 27.717 11.413 27.145 11.194 26.45 10.95 C 25.754 10.706 25.13 10.431 24.577 10.124 C 24.024 9.811 23.586 9.417 23.263 8.941 C 22.94 8.466 22.779 7.859 22.779 7.12 C 22.779 6.394 22.956 5.75 23.31 5.187 C 23.664 4.617 24.192 4.173 24.894 3.854 C 25.602 3.529 26.481 3.366 27.531 3.366 C 28.326 3.366 29.084 3.457 29.804 3.638 C 30.525 3.813 31.14 4.004 31.649 4.211 L 31.407 6.67 C 30.674 6.338 29.985 6.088 29.338 5.919 C 28.698 5.744 28.046 5.656 27.382 5.656 C 26.686 5.656 26.149 5.772 25.77 6.003 C 25.391 6.235 25.201 6.582 25.201 7.045 C 25.201 7.414 25.307 7.712 25.518 7.937 C 25.729 8.162 26.03 8.356 26.422 8.519 C 26.813 8.675 27.282 8.841 27.829 9.016 C 28.773 9.317 29.565 9.648 30.205 10.011 C 30.851 10.368 31.336 10.803 31.659 11.316 C 31.988 11.823 32.152 12.452 32.152 13.203 C 32.152 13.578 32.093 13.988 31.975 14.432 C 31.857 14.87 31.625 15.286 31.277 15.681 C 30.929 16.075 30.419 16.4 29.748 16.657 C 29.084 16.907 28.202 17.032 27.102 17.032 Z"
          fill="rgba(255, 255, 255, 0.6)"/>
    <path d="M 33.666 21.312 L 33.666 7.383 L 35.53 7.383 L 35.977 8.941 L 35.287 8.697 C 35.716 8.253 36.182 7.899 36.685 7.637 C 37.188 7.368 37.803 7.233 38.53 7.233 C 39.443 7.233 40.21 7.455 40.831 7.899 C 41.453 8.344 41.922 8.935 42.239 9.673 C 42.562 10.412 42.723 11.219 42.723 12.095 C 42.723 12.971 42.562 13.778 42.239 14.517 C 41.922 15.255 41.453 15.846 40.831 16.291 C 40.21 16.735 39.443 16.957 38.53 16.957 C 37.803 16.957 37.213 16.857 36.76 16.657 C 36.306 16.456 35.846 16.137 35.38 15.699 L 35.977 15.23 L 35.977 21.312 Z M 38.176 15.042 C 38.865 15.042 39.4 14.77 39.779 14.226 C 40.164 13.675 40.356 12.965 40.356 12.095 C 40.356 11.219 40.164 10.509 39.779 9.964 C 39.4 9.42 38.865 9.148 38.176 9.148 C 37.642 9.148 37.204 9.273 36.862 9.523 C 36.52 9.774 36.269 10.121 36.107 10.565 C 35.946 11.003 35.865 11.513 35.865 12.095 C 35.865 12.677 35.946 13.19 36.107 13.634 C 36.269 14.072 36.52 14.417 36.862 14.667 C 37.204 14.917 37.642 15.042 38.176 15.042 Z"
          fill="rgba(255, 255, 255, 0.6)"/>
    <path d="M 44.331 16.769 L 44.331 7.383 L 46.492 7.383 L 46.548 8.378 C 46.785 8.115 47.117 7.852 47.545 7.59 C 47.974 7.327 48.443 7.195 48.952 7.195 C 49.102 7.195 49.238 7.208 49.362 7.233 L 49.195 9.523 C 49.058 9.486 48.921 9.461 48.785 9.448 C 48.654 9.436 48.524 9.429 48.393 9.429 C 48.002 9.429 47.645 9.52 47.322 9.702 C 46.999 9.883 46.772 10.105 46.642 10.368 L 46.642 16.769 Z"
          fill="rgba(255, 255, 255, 0.6)"/>
    <path d="M 50.482 16.769 L 50.482 7.383 L 52.793 7.383 L 52.793 16.769 Z M 50.482 5.956 L 50.482 3.629 L 52.793 3.629 L 52.793 5.956 Z"
          fill="rgba(255, 255, 255, 0.6)"/>
    <path d="M 54.959 16.769 L 54.959 7.383 L 57.121 7.383 L 57.214 9.129 L 56.674 8.416 C 57.028 8.115 57.45 7.843 57.941 7.599 C 58.431 7.355 59.003 7.233 59.655 7.233 C 60.848 7.233 61.733 7.634 62.311 8.434 C 62.889 9.229 63.178 10.262 63.178 11.532 L 63.178 16.769 L 60.867 16.769 L 60.867 11.72 C 60.867 10.844 60.721 10.196 60.429 9.777 C 60.143 9.357 59.674 9.148 59.022 9.148 C 58.493 9.148 58.062 9.279 57.726 9.542 C 57.391 9.799 57.096 10.143 56.841 10.575 L 57.27 9.429 L 57.27 16.769 Z"
          fill="rgba(255, 255, 255, 0.6)"/>
    <path d="M 68.931 21.5 C 68.062 21.5 67.301 21.39 66.649 21.171 C 66.002 20.959 65.499 20.652 65.139 20.252 C 64.785 19.851 64.608 19.372 64.608 18.816 C 64.608 18.346 64.735 17.927 64.99 17.558 C 65.251 17.195 65.627 16.876 66.117 16.6 C 65.869 16.45 65.67 16.262 65.521 16.037 C 65.372 15.812 65.297 15.555 65.297 15.268 C 65.297 14.967 65.381 14.707 65.549 14.489 C 65.723 14.263 65.95 14.085 66.229 13.954 C 65.757 13.616 65.4 13.184 65.158 12.658 C 64.915 12.126 64.794 11.551 64.794 10.931 C 64.794 10.255 64.94 9.636 65.232 9.073 C 65.524 8.503 65.95 8.05 66.509 7.712 C 67.074 7.368 67.764 7.195 68.577 7.195 C 69 7.195 69.388 7.249 69.742 7.355 C 70.102 7.461 70.422 7.608 70.702 7.796 C 70.888 7.69 71.158 7.596 71.513 7.515 C 71.867 7.427 72.261 7.383 72.696 7.383 C 72.802 7.383 72.901 7.383 72.994 7.383 C 73.093 7.383 73.193 7.383 73.292 7.383 L 73.143 8.847 C 73.007 8.847 72.867 8.847 72.724 8.847 C 72.587 8.847 72.447 8.847 72.305 8.847 C 72.249 8.847 72.174 8.847 72.081 8.847 C 71.988 8.847 71.888 8.854 71.783 8.866 C 71.969 9.154 72.109 9.476 72.202 9.833 C 72.295 10.19 72.342 10.556 72.342 10.931 C 72.342 11.607 72.196 12.229 71.904 12.799 C 71.618 13.362 71.196 13.816 70.637 14.16 C 70.078 14.498 69.391 14.667 68.577 14.667 C 68.403 14.667 68.236 14.654 68.074 14.629 C 67.913 14.604 67.751 14.573 67.59 14.535 C 67.453 14.592 67.385 14.692 67.385 14.836 C 67.385 15.005 67.487 15.133 67.692 15.221 C 67.897 15.308 68.217 15.386 68.652 15.455 L 70.254 15.662 C 71.255 15.793 72.037 16.078 72.603 16.516 C 73.174 16.954 73.46 17.576 73.46 18.384 C 73.46 19.009 73.28 19.554 72.919 20.017 C 72.566 20.486 72.05 20.849 71.373 21.106 C 70.695 21.369 69.882 21.5 68.931 21.5 Z M 69.025 19.735 C 69.807 19.735 70.401 19.638 70.804 19.444 C 71.208 19.25 71.41 18.953 71.41 18.553 C 71.41 18.196 71.267 17.933 70.981 17.764 C 70.702 17.595 70.255 17.464 69.64 17.37 L 67.599 17.07 C 67.295 17.189 67.04 17.351 66.835 17.558 C 66.63 17.771 66.527 18.046 66.527 18.384 C 66.527 18.841 66.748 19.178 67.189 19.397 C 67.63 19.623 68.242 19.735 69.025 19.735 Z M 68.577 12.94 C 69.13 12.94 69.546 12.758 69.826 12.395 C 70.112 12.026 70.255 11.538 70.255 10.931 C 70.255 10.318 70.112 9.83 69.826 9.467 C 69.546 9.104 69.13 8.922 68.577 8.922 C 68.018 8.922 67.596 9.104 67.31 9.467 C 67.024 9.83 66.881 10.318 66.881 10.931 C 66.881 11.538 67.024 12.026 67.31 12.395 C 67.596 12.758 68.018 12.94 68.577 12.94 Z"
          fill="rgba(255, 255, 255, 0.6)"/>
    <path d="M 75.137 16.769 L 75.137 9.298 L 73.814 9.298 L 74.019 7.383 L 75.137 7.383 L 75.137 5.393 C 75.137 4.567 75.379 3.91 75.864 3.422 C 76.354 2.934 77.056 2.69 77.969 2.69 C 78.267 2.69 78.541 2.706 78.789 2.737 C 79.044 2.768 79.274 2.809 79.479 2.859 L 79.274 4.736 C 79.181 4.705 79.078 4.683 78.966 4.671 C 78.855 4.652 78.715 4.642 78.547 4.642 C 78.212 4.642 77.945 4.733 77.746 4.915 C 77.547 5.096 77.448 5.393 77.448 5.806 L 77.448 7.383 L 79.498 7.383 L 79.498 9.298 L 77.448 9.298 L 77.448 16.769 Z"
          fill="rgba(255, 255, 255, 0.6)"/>
    <path d="M 81.129 16.769 L 81.129 7.383 L 83.44 7.383 L 83.44 16.769 Z M 81.129 5.956 L 81.129 3.629 L 83.44 3.629 L 83.44 5.956 Z"
          fill="rgba(255, 255, 255, 0.6)"/>
    <path d="M 90.098 16.957 C 88.973 16.957 88.035 16.732 87.284 16.281 C 86.538 15.825 85.979 15.224 85.606 14.479 C 85.234 13.728 85.047 12.909 85.047 12.02 C 85.047 11.163 85.221 10.371 85.569 9.645 C 85.923 8.919 86.439 8.337 87.116 7.899 C 87.793 7.455 88.619 7.233 89.594 7.233 C 90.489 7.233 91.234 7.418 91.831 7.787 C 92.427 8.156 92.874 8.65 93.172 9.27 C 93.471 9.883 93.62 10.562 93.62 11.307 C 93.62 11.513 93.608 11.723 93.582 11.935 C 93.558 12.142 93.52 12.358 93.471 12.583 L 87.451 12.583 C 87.538 13.165 87.718 13.637 87.992 14.001 C 88.271 14.357 88.61 14.62 89.007 14.789 C 89.411 14.958 89.843 15.042 90.303 15.042 C 90.843 15.042 91.346 14.973 91.812 14.836 C 92.278 14.692 92.707 14.504 93.098 14.273 L 93.21 16.244 C 92.856 16.431 92.415 16.597 91.887 16.741 C 91.359 16.885 90.762 16.957 90.098 16.957 Z M 87.507 11.006 L 91.272 11.006 C 91.272 10.725 91.219 10.443 91.113 10.162 C 91.008 9.874 90.831 9.633 90.582 9.439 C 90.34 9.245 90.011 9.148 89.594 9.148 C 88.998 9.148 88.529 9.323 88.187 9.673 C 87.846 10.024 87.619 10.468 87.507 11.006 Z"
          fill="rgba(255, 255, 255, 0.6)"/>
    <path d="M 97.583 16.957 C 97.03 16.957 96.576 16.848 96.222 16.628 C 95.874 16.403 95.617 16.106 95.449 15.737 C 95.281 15.361 95.197 14.948 95.197 14.498 L 95.197 2.69 L 97.508 2.69 L 97.508 13.54 C 97.508 14.041 97.536 14.398 97.592 14.61 C 97.654 14.817 97.766 14.942 97.928 14.986 C 98.089 15.024 98.322 15.042 98.626 15.042 L 98.421 16.957 Z"
          fill="rgba(255, 255, 255, 0.6)"/>
    <path d="M 103.767 16.957 C 102.822 16.957 102.027 16.735 101.381 16.291 C 100.741 15.846 100.257 15.255 99.927 14.517 C 99.604 13.778 99.443 12.971 99.443 12.095 C 99.443 11.219 99.604 10.412 99.927 9.673 C 100.257 8.935 100.741 8.344 101.381 7.899 C 102.027 7.455 102.822 7.233 103.767 7.233 C 104.45 7.233 105.028 7.349 105.5 7.58 C 105.972 7.806 106.388 8.096 106.748 8.453 L 106.189 8.941 L 106.189 2.69 L 108.5 2.69 L 108.5 16.769 L 106.32 16.769 L 106.208 15.174 L 106.879 15.662 C 106.444 16.062 105.993 16.378 105.527 16.61 C 105.062 16.841 104.475 16.957 103.767 16.957 Z M 104.102 15.042 C 104.611 15.042 105.028 14.917 105.35 14.667 C 105.674 14.417 105.913 14.072 106.068 13.634 C 106.223 13.19 106.301 12.677 106.301 12.095 C 106.301 11.513 106.223 11.003 106.068 10.565 C 105.913 10.121 105.674 9.773 105.35 9.523 C 105.028 9.273 104.611 9.148 104.102 9.148 C 103.617 9.148 103.204 9.273 102.863 9.523 C 102.521 9.773 102.26 10.121 102.08 10.565 C 101.9 11.003 101.81 11.513 101.81 12.095 C 101.81 12.677 101.9 13.19 102.08 13.634 C 102.26 14.072 102.521 14.417 102.863 14.667 C 103.204 14.917 103.617 15.042 104.102 15.042 Z"
          fill="rgba(255, 255, 255, 0.6)"/>
    <path d="M 10.439 10.512 C 15.242 10.512 19.136 10.512 19.136 10.512 C 19.136 15.35 15.242 19.272 10.439 19.272 C 10.439 19.272 10.439 14.266 10.439 10.512 Z"
          fill="rgba(255, 255, 255, 0.6)"/>
    <path d="M 19.136 9.26 C 14.333 9.26 10.439 9.26 10.439 9.26 C 10.439 4.422 14.333 0.5 19.136 0.5 C 19.136 0.5 19.136 5.506 19.136 9.26 Z"
          fill="rgba(255, 255, 255, 0.6)"/>
    <path d="M 9.197 10.512 C 9.197 15.35 9.197 19.272 9.197 19.272 C 4.394 19.272 0.5 15.35 0.5 10.512 C 0.5 10.512 5.47 10.512 9.197 10.512 Z"
          fill="rgba(255, 255, 255, 0.6)"/>
    <path d="M 0.5 9.26 C 0.5 4.422 0.5 0.5 0.5 0.5 C 5.303 0.5 9.197 4.422 9.197 9.26 C 9.197 9.26 4.227 9.26 0.5 9.26 Z"
          fill="rgba(255, 255, 255, 0.6)"/>
</svg>
